# xmcd
#
# Track frame offsets: 
#        150
#        19568
#        41575
#        57778
#        68033
#        82037
#        92606
#        112426
#        124712
#        136208
#        166393
#        185824
#        204445
#        216739
#        228661
#        242540
#        259749
#        272278
#        295461
#        307517
#        321583
#
# Disc length: 4464 seconds
#
# Revision: 1
# Processed by: cddbd v1.5.2PL0 Copyright (c) Steve Scherf et al.
# Submitted via: ExactAudioCopyFreeDBPlugin 1.0
#
DISCID=38116e15
DTITLE=Various Artist - Ultimate Blues CD2
DYEAR=2009
DGENRE=Blues
TTITLE0=B.B.King and U2 - When Love Comes To Town
TTITLE1=Joe Bonamassa - Dirt In My Pocket
TTITLE2=Albert King - Under A Bad Sign
TTITLE3=Buddy Guy - First Time I Met The Blues
TTITLE4=Etta James - I Just Want To Make Love To You
TTITLE5=Loudon Wainwright - I'm Alright
TTITLE6=B.B King and Ray Charles - Sinner's Prayer
TTITLE7=Yardbirds - Good Morning Little Schoolgirl
TTITLE8=Sonny Boy Williamson - Don't Start Me Talkin
TTITLE9=John Mayall's Bluesbreakers - Have You Ever Loved A Woman
TTITLE10=James Hunter - Don't Do Me No Favours
TTITLE11=Bobby Blue Bland - Stormy Monday
TTITLE12=Elmore James - Dust My Broom
TTITLE13=Little Walter - My Babe
TTITLE14=Jophn Lee Hooker - I'm In The Mood
TTITLE15=Beth Rowley - Nobody's Fault But Mine
TTITLE16=Dinah Washington - Mad About The Boy
TTITLE17=Allman Brothers Band - Southbound
TTITLE18=Black Joe Lewis and Honeybears - Bitch I Love You
TTITLE19=Homesick James - Homesick's Blues
TTITLE20=Muddy Waters - Mannish Boy
EXTD=
EXTT0=
EXTT1=
EXTT2=
EXTT3=
EXTT4=
EXTT5=
EXTT6=
EXTT7=
EXTT8=
EXTT9=
EXTT10=
EXTT11=
EXTT12=
EXTT13=
EXTT14=
EXTT15=
EXTT16=
EXTT17=
EXTT18=
EXTT19=
EXTT20=
PLAYORDER=
